# xmcd CD database file
#
# Track frame offsets:
#	150
#	19101
#	33314
#	51218
#	70167
#	80541
#	97089
#	109823
#	121658
#	133738
#	147727
#	170861
#	195194
#
# Disc length: 2651 seconds
#
# Revision: 3
# Processed by: cddbd v1.5.2PL0 Copyright (c) Steve Scherf et al.
# Submitted via: CDex 1.51
#
DISCID=b80a590d
DTITLE=Disney - O Mickey Where Art Thou?
DYEAR=2003
DGENRE=Bluegrass
TTITLE0=Circle Of Life (Lion King) - Collin Raye 
TTITLE1=Zip-A-Dee-Doo-Dah (Song Of The South) - Elizabeth Cook
TTITLE2=You'll Be In My Heart (Tarzan) - Kevin Montgomery
TTITLE3=Baby Mine (Dumbo) - Caroline Brown
TTITLE4=Supercalifragilisticexpialidocious (Mary Poppins)
TTITLE5=The Bare Necessities (Jungle Book) - Stonewall Jackson
TTITLE6=When She Loved Me (Toy Story 2) - Sonya Isaacs
TTITLE7=You've Got A Friend In Me (Toy Story) - Amanda Martin and Lyle Goodman
TTITLE8=Mickey Mouse Club March - The Ballad Of Davy Crockett
TTITLE9=When I See An Elephant Fly (Dumbo) - Robbie Fulks
TTITLE10=I Will Go Sailing No More (Toy Story) - Charlie Louvin
TTITLE11=When You Wish Upon A Start (Pinocchio) - Ronnie Milsap
TTITLE12=Various Artist - DATA
EXTD=YEAR: 2003
EXTT0=
EXTT1=
EXTT2=
EXTT3=
EXTT4=
EXTT5=
EXTT6=
EXTT7=
EXTT8=
EXTT9=
EXTT10=
EXTT11=
EXTT12=
PLAYORDER=
